<svg xmlns="http://www.w3.org/2000/svg" viewBox="0 0 410 404">
  <g fill="none" fill-rule="evenodd">
    <path fill="#41D1FF" d="M398 0l-22.8 22.8c-21.6-8.4-45.6-13.2-70.4-13.2-97.2 0-176 78.8-176 176 0 24.8 4.8 48.8 13.2 70.4L0 398c-1.6-8.4-2.4-16.8-2.4-25.6 0-97.2 78.8-176 176-176 24.8 0 48.8 4.8 70.4 13.2L398 0z"/>
    <path fill="#FF3E00" d="M410 204c0 97.2-78.8 176-176 176-24.8 0-48.8-4.8-70.4-13.2L204 410c97.2 0 176-78.8 176-176 0-24.8-4.8-48.8-13.2-70.4L410 204z"/>
    <path fill="#FFCE00" d="M0 204c0-97.2 78.8-176 176-176 24.8 0 48.8 4.8 70.4 13.2L204 0C106.8 0 28 78.8 28 176c0 24.8 4.8 48.8 13.2 70.4L0 204z"/>
    <path fill="#FFF" d="M204 0c97.2 0 176 78.8 176 176 0 24.8-4.8 48.8-13.2 70.4L204 0z"/>
  </g>
</svg>
